<?xml version="1.0" standalone="no"?>
<!DOCTYPE svg PUBLIC "-//W3C//DTD SVG 1.1//EN" "http://www.w3.org/Graphics/SVG/1.1/DTD/svg11.dtd" >
<svg xmlns="http://www.w3.org/2000/svg">
<metadata>Generated by IcoMoon</metadata>
<defs>
<font id="beluga" horiz-adv-x="1024">
<font-face units-per-em="1024" ascent="960" descent="-64" />
<missing-glyph horiz-adv-x="1024" />
<glyph unicode="&#x20;" horiz-adv-x="512" d="" />
<glyph unicode="&#xe900;" glyph-name="reverse" d="M353.92 292.693v-316.16h-191.36v942.933h366.080c214.827 0 332.8-95.573 332.8-310.613 0-130.347-52.693-217.6-138.667-271.787l134.4-360.533h-209.28l-109.44 316.16h-184.533zM528.64 755.84h-174.72v-299.52h177.493c95.573 0 134.4 66.56 134.4 149.76 0 90.027-45.653 149.76-137.173 149.76z" />
<glyph unicode="&#xe901;" glyph-name="turtle" d="M1024 514.347c0.427 11.093-7.893 19.2-18.987 19.627-4.267 0.213-8.533 0.213-12.8 0-3.2-0.213-6.613-0.213-9.813 0-0.64 0.213-1.493 0.213-2.347 0.213-11.947 1.28-23.253 5.12-34.987 8.107-9.173 2.56-19.413 1.493-29.227 1.92-1.28 0-2.56-0.427-3.84-0.427-9.387 1.067-17.28-2.133-24.107-8.32-4.48-4.053-9.813-5.547-15.573-5.547-13.013 0-26.24 0-39.040 0-3.2 9.813-6.187 19.627-9.173 29.44-3.84 16.853-9.6 33.067-17.067 48.64-8.747 20.267-20.053 39.253-35.2 56.107-16.853 18.773-36.907 32.427-58.24 45.013-16.213 9.6-32.213 19.2-47.787 29.653-12.16 8.107-23.253 17.707-34.773 26.88-11.307 8.96-24.747 13.653-37.973 18.56-13.44 4.907-26.88 9.387-40.533 14.080-11.733 4.053-23.040 8.747-34.987 11.947-7.467 1.92-15.573 2.987-23.253 2.347-8.107-0.64-16.427-3.2-24.32-5.76-21.76-6.613-43.52-13.653-65.28-20.693-21.76-7.253-43.52-5.76-65.707-2.347-20.907 2.987-41.813 3.627-63.147 1.067-20.907-2.773-36.907-12.587-51.2-26.88-7.68-7.68-15.787-14.72-24.32-21.12-16.427-8.533-32.427-17.707-47.147-28.373-6.187-2.987-12.8-5.333-19.2-8.107-14.080-5.973-22.4-17.92-29.867-30.293-11.52-19.2-20.48-39.68-26.88-61.013-5.12-16.853-7.893-34.347-11.733-51.627-2.56-11.733-5.12-23.467-18.133-28.587-4.693-1.92-9.387-3.84-14.080-5.76-1.067-0.427-1.92-0.853-2.987-1.28-2.987-1.067-5.973-2.133-8.96-3.2-0.853 0-1.707 0-2.347 0.213-1.92 0.213-3.84-0.213-5.76-0.853-0.427 0-0.853-0.213-1.067-0.213-8.533-2.347-14.293-11.733-11.52-20.48 7.68-24.32 20.053-46.933 36.267-66.56 0-0.213 0.213-0.213 0.213-0.427 5.333-9.173 13.44-16.853 21.333-24.32 11.307-10.453 10.88-9.813 6.613-24.533-4.053-13.44-9.173-26.453-9.6-40.533-0.427-11.52 3.413-21.76 6.613-32.427 0.213-0.64 0.427-1.067 0.427-1.707 0 0 0 0 0-0.213 0.213-1.707 0.853-3.627 1.707-5.333 1.707-5.973 3.627-11.947 4.907-18.133 1.067-4.48 0.427-8.32-1.28-11.733-1.067-1.28-2.133-2.56-2.773-4.053-1.067-1.28-2.56-2.56-4.053-3.627-8.32-6.187-13.867-13.653-13.44-24.747 0.213-5.76 3.413-9.387 7.040-13.013 4.48-4.693 9.6-8.747 13.867-13.44 6.827-7.467 15.36-10.667 24.96-10.667 12.16 0.213 22.613-4.053 31.787-11.307 6.827-5.333 13.44-5.333 20.053-1.067 6.827 4.48 13.44 4.48 21.12 1.92 5.76-1.92 12.16-1.92 18.347-2.987 4.053-0.64 7.040 0.64 8.747 2.987 0.427 0.427 0.853 0.853 1.067 1.493 1.28 2.133 1.493 4.48 0.64 6.613-0.213 1.28-0.427 2.773-1.067 4.267-1.067 2.987-2.56 5.76-3.627 8.747-0.213 1.707-0.64 3.2-1.493 4.693-0.853 4.267-0.64 8.533 0.213 12.373 4.053 5.973 7.467 12.587 9.813 19.627 7.040 13.653 6.613 28.16 4.907 43.093-0.213 1.493-0.427 3.2-0.64 4.48 4.693-0.853 9.173-1.707 13.867-2.347 10.027-3.2 20.053-6.4 30.293-9.387 6.187-1.707 12.587-3.2 18.987-4.48 11.52-2.987 23.253-4.907 34.987-5.547 3.413-0.427 6.613-0.64 10.027-1.067 12.587-1.493 24.96-3.2 37.547-4.053 13.867-0.853 27.52-1.067 41.387-1.493 10.453-0.213 10.027-0.213 14.507-9.387 0.853-1.92 1.92-3.627 2.987-5.547 2.133-4.48 4.267-9.173 6.187-13.867 1.92-4.907 3.84-9.6 5.547-14.507 0.427-6.827-1.067-13.44-5.76-19.84-5.12-6.827-10.24-13.867-15.36-20.693-8.747-12.16-11.093-25.387-7.467-39.68 0.64-2.347 2.347-4.693 4.053-6.4 9.6-9.813 19.413-19.627 29.227-29.44 1.493-1.28 3.2-2.56 4.907-3.2 8.32-2.987 17.067-5.12 22.4-13.44 1.067-1.707 4.907-2.347 7.467-2.347 0.213 0 0.64 0 0.853 0 2.347-1.493 5.333-1.707 7.893-1.28 3.627-0.853 7.253-1.92 10.88-3.413 5.547-2.133 13.867-4.053 20.053 1.92 2.133 1.92 5.12 2.773 7.467 4.48 2.133 1.707 4.48 2.56 6.827 2.347 1.493-0.64 3.2-1.28 4.693-1.707 14.293-7.467 29.227 2.347 36.907 10.453 3.413 3.413 3.84 10.453 0.853 15.36-2.347 4.053-4.907 7.893-7.467 11.733-2.56 4.48-5.12 8.96-7.467 13.653-1.067 4.907 0.64 9.387 5.12 14.293 13.013 14.293 24.533 29.44 33.493 46.72 4.48 8.32 5.333 17.28 6.4 26.24 0.213 2.347 0.427 4.907 0.64 7.253 0.64 2.773 0.64 5.547 0.64 8.32 0.427 7.893 0.64 15.573 1.067 23.467 0.213 2.987 1.28 4.053 4.267 4.267 16.427 1.707 32.853 2.987 49.067 5.547 19.2 2.987 38.187 7.040 57.387 11.093 6.613 1.493 12.8 4.053 18.987 6.4 4.693 1.92 8.107 1.493 10.24-1.067 0.427-2.56 1.067-5.12 1.92-7.68 0.853-12.587 1.067-25.387 2.347-37.76 1.067-10.88 3.413-21.547 5.547-32.213 0.427-2.347 1.92-4.907 3.627-6.613 2.987-2.773 5.547-5.973 7.467-9.173 0.853-1.493 1.493-2.773 2.347-4.053 2.987-5.547 5.12-11.52 7.253-17.493 0.64-3.413 1.707-6.613 3.413-9.6 0.213-0.64 0.64-1.493 0.853-2.133 4.267-10.24 13.227-11.093 25.173-10.453 4.907 0.213 9.813 0.213 14.507-0.427 5.547-0.853 10.88-3.2 16.427-4.053 7.253-1.28 14.080 0.853 20.693 3.84 1.067 0.427 2.133 0.853 3.413 1.067 1.067-0.213 1.92-0.427 2.987-0.64 2.773-0.213 5.547-0.213 8.32 0 4.053-0.213 7.893 0.853 11.52 2.773 3.627 1.493 7.253 3.2 10.453 5.547 2.347 0.64 4.907 0.853 7.68 0.64 6.4-0.427 13.013 0 19.413 0 1.067 0 1.92 0.213 2.987 0.427 1.707 0.213 3.413 0.853 4.693 2.133 5.333 3.627 7.68 10.453 4.48 16.64-0.427 0.853-1.067 1.92-1.707 2.773-0.853 2.347-2.347 4.693-4.267 5.973-1.493 1.92-3.413 3.627-5.12 4.907-11.947 8.96-21.333 19.413-24.533 34.347-1.28 5.547-1.92 11.307-2.347 16.853-0.64 11.093-1.28 21.973-0.853 33.067 0.64 20.907-4.267 39.893-15.573 56.747-3.627 7.040-8.107 13.44-13.44 19.2-1.707 2.773-3.413 5.547-5.333 8.32 1.493 1.707 2.987 3.2 4.48 4.907 6.613 5.12 14.72 6.187 22.613 7.040 10.24 1.067 18.133 6.187 25.813 11.947 4.907 3.627 8.96 8.32 14.080 11.307 9.387 5.76 20.267 7.467 31.147 9.173 19.413 2.987 38.613 6.613 55.253 18.347 9.173 6.4 13.653 15.787 16.64 25.813 3.627 12.16 5.76 24.747 8.107 37.333 0 0.427 0.213 0.64 0.213 1.067 0.427 1.067 0.853 2.133 1.067 3.2l1.067 7.467c0 1.28 0 2.773-0.213 4.053 1.28 0.853 1.28 2.347 1.493 3.627z" />
<glyph unicode="&#xe902;" glyph-name="claw" d="M579.2 234.453c-12.373-3.84-24.32-5.547-35.413-5.547-10.667 0-20.48 1.707-29.227 5.12-41.813-16.213-85.973-24.533-131.413-24.533-74.027 0-146.347 22.613-206.72 64.427-8.96 6.187-20.48 7.253-30.507 2.987l-3.84-1.707c-16.213-6.827-34.987 0.64-42.027 16.853l-34.133 80.427c-6.827 16.213 0.64 34.987 16.853 42.027l80.427 34.133c16.213 6.827 34.987-0.64 42.027-16.853l35.84-84.053c2.773-6.613 7.68-12.16 14.080-15.573 39.253-20.907 82.987-31.787 128-31.787 31.147 0 61.653 5.12 90.667 15.573 3.2 22.613 13.227 47.147 29.013 71.253l-242.133 241.92c-5.973 5.973-14.080 9.387-22.613 9.387h-35.2c-17.707 0-32 14.293-32 32v86.613c0 17.707 14.293 32 32 32h86.613c17.707 0 32-14.293 32-32v-35.413c0-8.533 3.413-16.64 9.387-22.613l242.133-242.133c24.107 15.787 48.64 25.813 71.253 29.013 10.24 29.013 15.573 59.52 15.573 90.667 0 45.013-10.88 88.747-31.787 128-3.413 6.4-8.96 11.307-15.573 14.080l-84.267 35.84c-16.213 6.827-23.893 25.6-16.853 42.027l34.133 80.427c6.827 16.213 25.6 23.893 42.027 16.853l80.427-34.133c16.213-6.827 23.893-25.6 16.853-42.027l-1.707-3.84c-4.267-10.027-3.2-21.547 2.987-30.507 41.813-60.373 64.427-132.907 64.427-206.72 0-45.44-8.32-89.387-24.533-131.413 7.040-18.133 6.827-40.32-0.427-64.64l222.507-222.507c12.587-12.587 12.587-32.853 0-45.227l-101.12-100.907c-12.587-12.587-32.853-12.587-45.227 0l-222.507 222.507z" />
<glyph unicode="&#xe903;" glyph-name="key-r1" d="M412.16 544.64c-7.467 6.4-21.547 9.6-42.24 9.6h-49.707v-74.453h47.787c5.12 0 15.147 1.707 30.080 4.907 7.467 1.493 13.653 5.333 18.347 11.52s7.040 13.227 7.040 21.333c0 11.733-3.627 20.693-11.307 27.093zM906.88 740.48h-789.973c-64.427 0-117.12-52.693-117.12-117.12v-351.147c0-64.427 52.693-117.12 117.12-117.12h789.973c64.427 0 117.12 52.693 117.12 117.12v351.147c0 64.64-52.693 117.12-117.12 117.12zM439.040 261.547l-60.587 112c-7.68 14.507-14.507 23.893-20.48 28.16-8.107 5.76-17.493 8.533-27.733 8.533h-10.027v-148.693h-113.707v366.507h188.8c34.987 0 61.653-2.987 80.213-8.96s33.493-17.067 44.8-33.28c11.307-16.213 17.067-36.053 17.067-59.307 0-20.267-4.267-37.973-13.013-52.693s-20.693-26.667-35.84-35.84c-9.6-5.76-22.827-10.667-39.68-14.507 13.44-4.48 23.253-8.96 29.44-13.44 4.267-2.987 10.24-9.387 18.133-19.2s13.227-17.493 15.787-22.827l54.827-106.24h-128zM817.493 261.547h-103.040v244.267c-16.64-12.587-32.853-22.827-48.427-30.72s-35.2-15.36-58.667-22.4v83.413c34.56 11.093 61.653 24.533 80.853 40.32 19.2 15.573 34.133 34.987 45.013 58.027h84.267v-372.907z" />
<glyph unicode="&#xe904;" glyph-name="key-r2" d="M378.667 530.987c-7.467 6.4-21.547 9.6-42.24 9.6h-49.707v-74.453h47.787c5.12 0 15.147 1.707 30.080 4.907 7.467 1.493 13.653 5.333 18.347 11.52s7.040 13.227 7.040 21.333c0 11.52-3.84 20.693-11.307 27.093zM711.893 946.347h-399.787c-171.733 0-312.107-140.587-312.107-312.107v-375.467c0-64.427 52.693-117.12 117.12-117.12h789.973c64.427 0 117.12 52.693 117.12 117.12v375.467c-0.213 171.52-140.587 312.107-312.32 312.107zM405.333 247.893l-60.587 112c-7.68 14.507-14.507 23.893-20.48 28.16-8.107 5.76-17.493 8.533-27.733 8.533h-10.027v-148.693h-113.707v366.507h188.8c34.987 0 61.653-2.987 80.213-8.96s33.493-17.067 44.8-33.28c11.307-16.213 17.067-36.053 17.067-59.307 0-20.267-4.267-37.973-13.013-52.693s-20.693-26.667-35.84-35.84c-9.6-5.76-23.040-10.667-39.68-14.507 13.44-4.48 23.253-8.96 29.44-13.44 4.267-2.987 10.24-9.387 18.133-19.2s13.227-17.493 15.787-22.827l54.827-106.24h-128zM851.2 247.893h-305.493c3.413 30.080 14.080 58.453 31.787 85.12s50.987 58.027 99.84 94.080c29.867 22.187 48.853 39.040 57.173 50.56s12.587 22.4 12.587 32.853c0 11.093-4.053 20.693-12.373 28.587s-18.56 11.947-31.147 11.947c-13.013 0-23.68-4.053-31.787-12.16-8.32-8.107-13.867-22.613-16.64-43.307l-101.973 8.32c4.053 28.587 11.307 50.987 21.973 67.2 10.667 16 25.6 28.373 45.227 36.907 19.413 8.533 46.293 12.8 80.64 12.8 35.84 0 63.787-4.053 83.627-12.16s35.627-20.693 46.933-37.547c11.307-16.853 17.067-35.84 17.067-56.96 0-22.4-6.613-43.733-19.627-64s-36.907-42.667-71.467-66.987c-20.48-14.080-34.133-24.107-41.173-29.653-6.827-5.76-15.147-13.013-24.32-22.187h159.147v-83.413z" />
<glyph unicode="&#xe905;" glyph-name="key-x" d="M512 960c-282.667 0-512-229.333-512-512s229.333-512 512-512 512 229.333 512 512-229.333 512-512 512zM609.493 203.733l-96.427 157.013-96.427-157.013h-168.747l168.533 254.72-153.173 234.027h166.4l86.4-150.4 84.267 150.4h164.693l-152.107-236.587 166.4-251.947h-169.813z" />
<glyph unicode="&#xe906;" glyph-name="key-y" d="M512 960c-282.667 0-512-229.333-512-512s229.333-512 512-512 512 229.333 512 512-229.333 512-512 512zM587.733 408.32v-204.587h-151.253v204.587l-190.293 283.947h167.68l98.56-164.907 98.56 164.907h166.827l-190.080-283.947z" />
<glyph unicode="&#xe907;" glyph-name="start" d="M13.44 396.8l58.667 5.547c1.28-14.507 3.84-25.387 7.68-33.067 6.4-12.16 15.36-18.347 27.307-18.347 8.747 0 15.573 3.2 20.267 9.387s7.040 13.44 7.040 21.76c0 7.893-2.347 14.933-6.827 21.12s-15.147 11.947-31.573 17.493c-27.093 9.173-46.293 21.547-57.813 36.693-11.52 15.36-17.493 34.773-17.493 58.453 0 15.573 2.987 30.293 8.96 43.947 5.973 13.867 14.933 24.747 26.88 32.64s28.373 11.947 49.067 11.947c25.6 0 45.013-7.253 58.24-21.547 13.44-14.293 21.333-37.333 23.893-68.48l-58.027-5.12c-1.493 13.653-4.693 23.467-9.813 29.653-4.907 6.187-11.733 9.387-20.48 9.387-7.253 0-12.587-2.347-16.213-6.827-3.627-4.693-5.547-10.24-5.547-16.853 0-4.907 1.493-9.173 4.48-13.013 2.987-4.053 9.813-7.68 20.693-11.093 26.88-8.747 46.293-17.707 58.027-26.667s20.053-20.267 25.387-33.493c5.333-13.44 7.893-28.16 7.893-44.8 0-19.413-3.627-37.333-10.667-53.547-7.040-16.427-17.067-28.8-29.653-37.333-12.8-8.533-28.8-12.587-48-12.587-33.92 0-57.387 9.813-70.613 29.653-12.587 19.413-20.053 44.587-21.76 75.093zM211.413 599.253h187.52v-74.667h-62.933v-227.627h-61.653v227.627h-62.933v74.667zM530.56 346.667h-69.973l-9.813-49.92h-62.933l75.093 302.293h67.2l75.093-302.293h-64.64l-10.027 49.92zM517.76 412.16l-21.973 108.8-21.76-108.8h43.733zM625.493 296.747v302.293h102.827c18.987 0 33.707-2.56 43.733-7.467s18.133-14.080 24.32-27.52c6.187-13.44 9.173-29.653 9.173-49.067 0-16.853-2.347-31.147-7.040-43.52s-11.307-21.973-19.413-29.653c-5.333-4.907-12.587-8.747-21.76-11.947 7.253-3.627 12.8-7.467 16-11.093 2.347-2.56 5.547-7.68 9.813-16 4.267-8.107 7.253-14.293 8.533-18.773l29.867-87.68h-69.76l-33.067 92.373c-4.267 11.947-7.893 19.627-11.093 23.253-4.48 4.693-9.387 7.040-15.147 7.040h-5.547v-122.667h-61.44zM687.573 476.587h26.027c2.773 0 8.32 1.28 16.427 4.053 4.053 1.28 7.467 4.48 10.027 9.387 2.56 5.12 3.84 10.88 3.84 17.493 0 9.813-2.133 17.28-6.187 22.4s-11.733 7.893-23.040 7.893h-27.093v-61.227zM825.173 599.253h187.52v-74.667h-62.933v-227.627h-61.653v227.627h-62.933v74.667z" />
<glyph unicode="&#xe908;" glyph-name="stick-l" d="M853.547 849.707c-91.733 71.040-213.12 110.293-341.547 110.293s-249.813-39.253-341.547-110.293c-96-74.453-148.907-174.507-148.907-282.24s52.907-207.787 148.907-282.24c36.267-27.947 77.013-50.987 120.96-68.693v-115.2c0-91.52 98.773-165.547 220.8-165.547s220.8 74.027 220.8 165.547v115.2c43.947 17.707 84.693 40.747 120.96 68.693 96 74.453 148.907 174.507 148.907 282.24s-53.333 208-149.333 282.24zM692.267 395.947h-333.44v421.333h130.133v-317.653h203.307v-103.68z" />
<glyph unicode="&#xe909;" glyph-name="stick-l-horizontal" d="M610.133 52.48v39.893h-196.267v-37.973c0-20.693-8.32-39.68-23.253-53.76-9.387-8.747-20.48-14.72-32.64-17.707 39.68-29.013 94.080-46.933 154.027-46.933 58.88 0 112.64 17.28 152.107 45.653-31.147 8.533-53.973 37.12-53.973 70.827zM364.8 141.44h294.4v-88.96c0-21.76 26.24-32.64 41.6-17.493l152.747 149.333c14.507 14.293 14.72 37.547 0.64 52.053l-152.96 156.373c-15.36 15.787-42.027 4.907-42.027-17.067v-87.040h-294.4v88.96c0 21.76-26.24 32.64-41.6 17.493l-153.173-154.027c-14.293-14.507-14.293-37.76 0.213-52.053l152.533-151.68c15.36-15.787 42.027-4.907 42.027 17.067v87.040zM853.547 849.707c-91.733 71.040-213.12 110.293-341.547 110.293s-249.813-39.253-341.547-110.293c-96-74.453-148.907-174.507-148.907-282.24 0-102.187 47.787-197.76 134.827-270.72l132.693 133.333c13.867 13.44 32 20.907 51.2 20.907 40.747 0 73.813-33.067 73.813-73.6v-39.893h196.267v37.973c0 40.533 33.067 73.6 73.813 73.6 19.84 0 38.4-7.893 52.48-22.187l129.28-132.053c88.533 73.173 136.96 169.6 136.96 272.64-0.427 107.733-53.333 208-149.333 282.24zM669.653 469.547h-291.84v368.64h113.92v-277.973h177.707v-90.667z" />
<glyph unicode="&#xe90a;" glyph-name="stick-l-vertical" d="M908.16 661.333h-33.493v-170.667h33.067c9.387 0 18.56-2.133 26.88-5.76 2.773 16 4.267 32.213 4.267 48.427-0.213 44.8-10.667 87.893-30.72 128zM715.307 248.32l-134.4 133.547c-18.133 18.56-23.253 45.867-13.227 69.547 10.027 23.893 33.067 39.253 59.093 39.253h34.56v170.667h-33.067c-26.24 0-49.493 15.573-59.307 39.893-9.813 24.107-4.267 51.627 14.507 69.973l82.56 80.853c-48.64 14.933-100.693 22.827-154.24 22.827-111.787 0-217.173-34.133-297.173-95.787-83.627-64.64-129.493-151.893-129.493-245.547s46.080-180.693 129.493-245.547c31.36-24.32 66.987-44.373 105.173-59.733v-100.053c0-79.573 85.973-144 192-144s192 64.427 192 144v100.053c7.893 3.2 15.787 6.613 23.467 10.24-4.053 2.773-8.32 5.973-11.947 9.813zM508.373 384h-253.653v320.64h99.2v-241.707h154.667v-78.933zM832 448v256h77.227c18.987 0 28.373 22.827 15.36 36.267l-129.92 132.907c-12.373 12.587-32.64 12.8-45.227 0.427l-136.107-133.12c-13.653-13.44-4.267-36.48 14.933-36.48h75.733v-256h-77.227c-18.987 0-28.373-22.827-15.36-36.267l133.973-133.12c12.587-12.373 32.853-12.373 45.227 0.213l132.053 132.693c13.653 13.44 4.267 36.48-14.933 36.48h-75.733z" />
<glyph unicode="&#xe90b;" glyph-name="stick-r" d="M563.84 721.28c-8.533 7.253-24.747 10.88-48.64 10.88h-57.173v-85.547h54.827c5.973 0 17.493 1.92 34.56 5.76 8.533 1.707 15.573 6.187 21.12 13.227s8.107 15.147 8.107 24.533c0.213 13.44-4.267 23.893-12.8 31.147zM853.547 849.707c-91.733 71.040-213.12 110.293-341.547 110.293s-249.813-39.253-341.547-110.293c-96-74.453-148.907-174.507-148.907-282.24s52.907-207.787 148.907-282.24c36.267-27.947 77.013-50.987 120.96-68.693v-115.2c0-91.52 98.773-165.547 220.8-165.547s220.8 74.027 220.8 165.547v115.2c43.947 17.707 84.693 40.747 120.96 68.693 96 74.453 148.907 174.507 148.907 282.24s-53.333 208-149.333 282.24zM594.56 395.947l-69.547 128.853c-8.747 16.64-16.64 27.52-23.467 32.427-9.387 6.613-20.053 9.813-32 9.813h-11.52v-171.093h-130.773v421.333h216.96c40.32 0 71.040-3.413 92.16-10.453 21.333-6.827 38.4-19.627 51.413-38.4s19.627-41.387 19.627-68.267c0-23.467-4.907-43.52-14.933-60.587-10.027-16.853-23.68-30.72-41.173-41.173-11.093-6.613-26.453-12.16-45.653-16.64 15.573-5.12 26.88-10.453 33.92-15.573 4.693-3.413 11.733-10.88 20.907-22.187s15.147-20.053 18.133-26.24l63.147-122.027h-147.2z" />
<glyph unicode="&#xe90c;" glyph-name="stick-r-horizontal" d="M610.133 52.48v39.893h-196.267v-37.973c0-20.693-8.32-39.68-23.253-53.76-9.387-8.747-20.48-14.72-32.64-17.707 39.68-29.013 94.080-46.933 154.027-46.933 58.88 0 112.64 17.28 152.107 45.653-31.147 8.533-53.973 37.12-53.973 70.827zM364.8 141.44h294.4v-88.96c0-21.76 26.24-32.64 41.6-17.493l152.747 149.333c14.507 14.293 14.72 37.547 0.64 52.053l-152.96 156.373c-15.36 15.787-42.027 4.907-42.027-17.067v-87.040h-294.4v88.96c0 21.76-26.24 32.64-41.6 17.493l-153.173-154.027c-14.293-14.507-14.293-37.76 0.213-52.053l152.533-151.68c15.36-15.787 42.027-4.907 42.027 17.067v87.040zM557.44 754.133c-7.467 6.4-21.76 9.6-42.453 9.6h-50.133v-74.88h48c5.12 0 15.36 1.707 30.080 5.12 7.467 1.493 13.653 5.333 18.56 11.52 4.693 6.187 7.253 13.227 7.253 21.333 0 11.733-3.84 20.907-11.307 27.307zM853.547 849.707c-91.733 71.040-213.12 110.293-341.547 110.293s-249.813-39.253-341.547-110.293c-96-74.453-148.907-174.507-148.907-282.24 0-102.187 47.787-197.76 134.827-270.72l132.693 133.333c13.867 13.44 32 20.907 51.2 20.907 40.747 0 73.813-33.067 73.813-73.6v-39.893h196.267v37.973c0 40.533 33.067 73.6 73.813 73.6 19.84 0 38.4-7.893 52.48-22.187l129.28-132.053c88.533 73.173 136.96 169.6 136.96 272.64-0.427 107.733-53.333 208-149.333 282.24zM584.32 469.547l-60.8 112.64c-7.68 14.507-14.507 24.107-20.693 28.373-8.32 5.76-17.493 8.533-27.947 8.533h-10.027v-149.547h-114.347v368.64h189.867c35.2 0 62.080-2.987 80.64-8.96s33.707-17.28 45.013-33.493c11.307-16.427 17.067-36.267 17.067-59.733 0-20.48-4.267-38.187-13.013-52.907-8.747-14.933-20.693-26.88-36.053-36.053-9.813-5.973-23.040-10.667-40.107-14.507 13.653-4.48 23.467-8.96 29.653-13.653 4.267-2.987 10.24-9.387 18.133-19.413 7.893-9.813 13.227-17.493 16-22.827l55.253-106.88h-128.64z" />
<glyph unicode="&#xe90d;" glyph-name="stick-r-vertical" d="M963.2 707.627h-37.973v-194.347h37.547c10.88 0 21.12-2.347 30.507-6.613 3.2 18.133 4.907 36.693 4.907 55.253 0 50.987-11.947 100.267-34.987 145.707zM386.56 673.92c-7.467 6.4-21.547 9.387-42.027 9.387h-49.493v-74.24h47.573c5.12 0 15.147 1.707 29.867 4.907 7.467 1.493 13.653 5.333 18.347 11.52s7.040 13.227 7.040 21.12c-0.213 11.947-3.84 20.907-11.307 27.307zM743.467 237.227l-152.96 152.32c-20.48 21.12-26.453 52.053-15.147 79.36 11.307 27.093 37.76 44.587 67.2 44.587h39.467v194.347h-37.547c-29.867 0-56.32 17.92-67.627 45.44s-4.693 58.88 16.64 79.573l94.080 91.947c-55.253 17.067-114.773 26.027-175.787 26.027-127.36 0-247.467-38.827-338.56-109.227-95.147-73.6-147.627-173.013-147.627-279.68s52.48-206.080 147.627-279.68c35.84-27.733 76.16-50.56 119.68-68.053v-114.133c0-90.667 97.92-164.053 218.667-164.053s218.667 73.387 218.667 164.053v114.133c9.173 3.627 17.92 7.68 26.88 11.733-4.48 3.2-9.173 7.040-13.653 11.307zM413.227 391.68l-60.373 111.573c-7.68 14.507-14.507 23.893-20.48 28.16-8.107 5.547-17.28 8.533-27.733 8.533h-10.027v-148.267h-113.493v365.44h188.16c34.987 0 61.653-2.987 80-8.96s33.28-17.067 44.587-33.28c11.307-16.213 16.853-35.84 16.853-59.093 0-20.267-4.267-37.76-13.013-52.48s-20.48-26.667-35.627-35.84c-9.6-5.76-22.827-10.667-39.68-14.507 13.44-4.48 23.253-8.96 29.44-13.44 4.053-2.987 10.24-9.387 18.133-19.2s13.227-17.28 15.787-22.613l54.613-105.813h-127.147zM876.587 464.64v291.627h88.107c21.547 0 32.427 25.813 17.28 41.387l-148.053 151.467c-14.080 14.507-37.12 14.72-51.627 0.64l-155.093-151.68c-15.573-15.147-4.693-41.6 17.067-41.6h86.187v-291.627h-88.107c-21.547 0-32.427-25.813-17.28-41.387l152.533-151.68c14.293-14.293 37.333-14.080 51.627 0.213l150.4 151.253c15.573 15.147 4.693 41.6-17.067 41.6h-85.973z" />
<glyph unicode="&#xe90e;" glyph-name="back" d="M95.147 599.253h115.413c19.2 0 33.92-7.253 44.373-21.76 10.24-14.507 15.36-32.213 15.36-53.547 0-17.92-3.627-33.28-11.093-46.080-4.907-8.533-12.16-15.36-21.547-20.267 14.293-5.333 24.96-14.293 31.573-26.88 6.827-12.8 10.24-28.8 10.24-48 0-15.573-2.347-29.867-7.253-42.24-4.907-12.587-11.307-22.4-19.84-29.653-5.12-4.48-13.013-7.893-23.467-9.813-13.867-2.773-23.040-4.053-27.733-4.053h-106.453v302.293zM157.44 480.64h26.88c9.6 0 16.213 2.56 20.053 7.467 3.84 5.12 5.547 12.373 5.547 21.76 0 8.747-1.92 15.573-5.547 20.693s-10.24 7.467-19.627 7.467h-27.307v-57.387zM157.44 361.813h31.36c10.667 0 18.133 2.773 22.4 8.533s6.613 13.44 6.613 23.040c0 8.96-2.133 16.213-6.4 21.547s-11.947 8.107-22.613 8.107h-31.36v-61.227zM429.867 346.667h-69.973l-9.813-49.92h-62.933l75.093 302.293h67.2l75.093-302.293h-64.64l-10.027 49.92zM417.067 412.16l-21.973 108.8-21.76-108.8h43.733zM651.733 420.48l53.973-24.747c-3.627-23.040-9.387-42.24-17.067-57.6-7.893-15.36-17.493-27.093-29.013-34.773s-26.24-11.733-44.16-11.733c-21.76 0-39.467 4.693-53.12 14.293s-25.6 26.24-35.627 50.347c-10.027 24.107-14.933 54.827-14.933 92.373 0 49.92 8.747 88.533 26.24 115.413s42.453 40.32 74.453 40.32c25.173 0 44.8-7.68 59.307-23.040 14.293-15.36 25.173-39.040 32-71.040l-54.4-18.347c-1.92 9.173-3.84 16-5.973 20.267-3.413 7.253-7.68 12.587-12.587 16.427s-10.667 5.76-16.64 5.76c-14.080 0-24.747-8.533-32.213-25.6-5.547-12.587-8.533-32.427-8.533-59.52 0-33.493 3.413-56.533 10.027-68.907s16.213-18.56 28.373-18.56c11.733 0 20.693 5.12 26.667 15.147 6.187 9.813 10.453 24.533 13.227 43.52zM736 599.253h61.653v-114.347l64.64 114.347h81.92l-72.747-114.133 76.16-188.16h-75.947l-42.027 124.373-31.787-50.56v-73.813h-61.867v302.293z" />
<glyph unicode="&#xe90f;" glyph-name="dpad" d="M962.987 667.52h-231.467v231.467c0 33.707-27.307 61.013-61.013 61.013h-317.013c-33.707 0-61.013-27.307-61.013-61.013v-231.68h-231.467c-33.707 0-61.013-27.307-61.013-61.013v-317.013c0-33.707 27.307-61.013 61.013-61.013h231.467v-231.68c0-33.707 27.307-61.013 61.013-61.013h317.013c33.707 0 61.013 27.307 61.013 61.013v231.68h231.68c33.707 0 61.013 27.307 61.013 61.013v317.013c-0.213 33.92-27.52 61.227-61.227 61.227z" />
<glyph unicode="&#xe910;" glyph-name="dpad-down" d="M61.013 228.48h231.68v-231.68c0-33.707 27.307-61.013 61.013-61.013h317.013c33.707 0 61.013 27.307 61.013 61.013v231.68h231.68c33.707 0 61.013 27.307 61.013 61.013v317.013c0 33.707-27.307 61.013-61.013 61.013h-231.68v231.467c0 33.707-27.307 61.013-61.013 61.013h-317.013c-33.707 0-61.013-27.307-61.013-61.013v-231.68h-231.68c-33.707 0-61.013-27.307-61.013-61.013v-317.013c0-33.493 27.307-60.8 61.013-60.8zM716.16 618.667h246.827c6.827 0 12.16-5.547 12.16-12.16v-317.013c0-6.827-5.547-12.16-12.16-12.16h-245.973l-171.093 171.093 170.24 170.24zM341.333 898.987c0 6.827 5.547 12.16 12.16 12.16h317.013c6.827 0 12.16-5.547 12.16-12.16v-244.907l-171.093-171.093-170.24 170.24v245.76zM48.853 606.507c0 6.827 5.547 12.16 12.16 12.16h245.973l170.24-170.24-171.093-171.093h-244.907c-6.827 0-12.16 5.547-12.16 12.16v317.013z" />
<glyph unicode="&#xe911;" glyph-name="dpad-left" d="M292.48 898.987v-231.68h-231.68c-33.707 0-61.013-27.307-61.013-61.013v-317.013c0-33.707 27.307-61.013 61.013-61.013h231.68v-231.68c0-33.707 27.307-61.013 61.013-61.013h317.013c33.707 0 61.013 27.307 61.013 61.013v231.68h231.68c33.707 0 61.013 27.307 61.013 61.013v317.013c0 33.707-27.307 61.013-61.013 61.013h-231.68v231.68c0 33.707-27.307 61.013-61.013 61.013h-317.013c-33.707 0-61.013-27.307-61.013-61.013zM682.667 243.84v-246.827c0-6.827-5.547-12.16-12.16-12.16h-317.013c-6.827 0-12.16 5.547-12.16 12.16v245.973l171.093 171.093 170.24-170.24zM962.987 618.667c6.827 0 12.16-5.547 12.16-12.16v-317.013c0-6.827-5.547-12.16-12.16-12.16h-244.907l-171.093 171.093 170.24 170.24h245.76zM670.507 911.147c6.827 0 12.16-5.547 12.16-12.16v-245.973l-170.24-170.24-171.093 171.093v244.907c0 6.827 5.547 12.16 12.16 12.16h317.013z" />
<glyph unicode="&#xe912;" glyph-name="dpad-right" d="M731.52-2.987v231.68h231.68c33.707 0 61.013 27.307 61.013 61.013v317.013c0 33.707-27.307 61.013-61.013 61.013h-231.68v231.68c0 33.707-27.307 61.013-61.013 61.013h-317.013c-33.707 0-61.013-27.307-61.013-61.013v-231.68h-231.68c-33.707 0-61.013-27.307-61.013-61.013v-317.013c0-33.707 27.307-61.013 61.013-61.013h231.68v-231.68c0-33.707 27.307-61.013 61.013-61.013h317.013c33.707 0 61.013 27.307 61.013 61.013zM341.333 652.16v246.827c0 6.827 5.547 12.16 12.16 12.16h317.013c6.827 0 12.16-5.547 12.16-12.16v-245.973l-171.093-171.093-170.24 170.24zM61.013 277.333c-6.827 0-12.16 5.547-12.16 12.16v317.013c0 6.827 5.547 12.16 12.16 12.16h244.907l171.093-171.093-170.24-170.24h-245.76zM353.493-15.147c-6.827 0-12.16 5.547-12.16 12.16v245.973l170.24 170.24 171.093-171.093v-244.907c0-6.827-5.547-12.16-12.16-12.16h-317.013z" />
<glyph unicode="&#xe913;" glyph-name="dpad-up" d="M962.987 667.52h-231.467v231.467c0 33.707-27.307 61.013-61.013 61.013h-317.013c-33.707 0-61.013-27.307-61.013-61.013v-231.68h-231.467c-33.707 0-61.013-27.307-61.013-61.013v-317.013c0-33.707 27.307-61.013 61.013-61.013h231.68v-231.68c0-33.707 27.307-61.013 61.013-61.013h317.013c33.707 0 61.013 27.307 61.013 61.013v231.68h231.68c33.707 0 61.013 27.307 61.013 61.013v317.013c-0.427 33.92-27.733 61.227-61.44 61.227zM307.84 277.333h-246.827c-6.827 0-12.16 5.547-12.16 12.16v317.013c0 6.827 5.547 12.16 12.16 12.16h245.973l171.093-171.093-170.24-170.24zM682.667-2.987c0-6.827-5.547-12.16-12.16-12.16h-317.013c-6.827 0-12.16 5.547-12.16 12.16v244.907l171.093 171.093 170.24-170.24v-245.76zM975.147 289.493c0-6.827-5.547-12.16-12.16-12.16h-245.76l-170.24 170.24 171.093 171.093h244.907c6.827 0 12.16-5.547 12.16-12.16v-317.013z" />
<glyph unicode="&#xe914;" glyph-name="key-a" d="M456.747 409.813h107.307l-53.973 175.787zM512 960c-282.667 0-512-229.333-512-512s229.333-512 512-512 512 229.333 512 512-229.333 512-512 512zM619.947 223.573l-24.533 80.64h-171.52l-23.893-80.64h-154.24l183.68 488.747h164.693l183.68-488.747h-157.867z" />
<glyph unicode="&#xe915;" glyph-name="key-b" d="M581.333 394.453c-10.453 8.747-29.013 13.227-55.467 13.227h-76.587v-98.987h77.013c26.027 0 44.373 4.693 55.040 13.867s16 21.547 16 37.12c-0.213 14.507-5.547 26.027-16 34.773zM564.053 512.853c9.173 8.107 13.867 19.84 13.867 35.2 0 14.293-4.693 25.387-13.867 33.28-9.173 8.107-25.387 11.947-48.213 11.947h-66.773v-92.587h65.707c23.68 0 40.107 4.053 49.28 12.16zM512 960c-282.667 0-512-229.333-512-512s229.333-512 512-512 512 229.333 512 512-229.333 512-512 512zM730.88 274.347c-11.733-20.267-27.947-36.267-48.427-48-12.587-7.253-31.787-12.587-57.387-16-33.92-4.48-56.533-6.613-67.627-6.613h-260.693v488.747h282.667c47.147 0 83.2-11.733 108.587-34.987 25.173-23.253 37.76-52.267 37.76-86.613 0-28.8-8.96-53.76-27.093-74.24-11.947-13.867-29.653-24.747-52.693-32.64 35.2-8.533 61.013-23.040 77.44-43.52 16.64-20.48 24.747-46.293 24.747-77.44 0.427-25.6-5.547-48.427-17.28-68.693z" />
<glyph unicode="&#xe916;" glyph-name="key-home" d="M454.4 724.48c-83.2 66.773-166.187 117.547-237.227 142.293-131.413-92.8-217.173-245.76-217.173-418.773 0-133.973 51.627-256 135.893-347.307 12.373 180.693 113.92 456.32 318.507 623.787zM511.36 766.080c83.413 54.827 181.12 91.947 294.4 100.693-71.040-24.747-154.24-75.52-237.44-142.507 205.013-167.467 306.773-443.947 318.933-624.64 84.907 91.307 136.747 213.76 136.747 348.373 0 282.667-229.333 512-512 512-109.653 0-211.413-34.56-294.613-93.227 113.067-8.96 210.773-45.867 293.973-100.693zM511.36 676.053c-178.347-159.36-344.107-383.787-375.467-575.36 93.653-101.333 227.413-164.693 376.107-164.693 148.267 0 281.813 62.933 375.253 163.627-31.147 192-197.333 416.853-375.893 576.427z" />
<glyph unicode="&#xe917;" glyph-name="key-l1" d="M906.88 740.48h-789.973c-64.427 0-117.12-52.693-117.12-117.12v-351.147c0-64.427 52.693-117.12 117.12-117.12h789.973c64.427 0 117.12 52.693 117.12 117.12v351.147c0 64.64-52.693 117.12-117.12 117.12zM524.16 261.547h-289.92v366.507h113.28v-276.267h176.853v-90.24zM789.973 261.547h-103.040v244.267c-16.64-12.587-32.853-22.827-48.427-30.72s-35.2-15.36-58.667-22.4v83.413c34.56 11.093 61.653 24.533 80.853 40.32 19.2 15.573 34.133 34.987 45.013 58.027h84.267v-372.907z" />
<glyph unicode="&#xe918;" glyph-name="key-l2" d="M711.893 946.347h-399.787c-171.733 0-312.107-140.373-312.107-312.107v-375.467c0-64.427 52.693-117.12 117.12-117.12h789.973c64.427 0 117.12 52.693 117.12 117.12v375.467c-0.213 171.52-140.587 312.107-312.32 312.107zM490.453 247.893h-289.92v366.507h113.28v-276.267h176.853v-90.24zM823.467 247.893h-305.493c3.413 30.080 14.080 58.453 31.787 85.12s50.987 58.027 99.84 94.080c29.867 22.187 48.853 39.040 57.173 50.56s12.587 22.4 12.587 32.853c0 11.093-4.053 20.693-12.373 28.587s-18.56 11.947-31.147 11.947c-13.013 0-23.68-4.053-31.787-12.16-8.32-8.107-13.867-22.613-16.64-43.307l-101.973 8.32c4.053 28.587 11.307 50.987 21.973 67.2 10.667 16 25.813 28.373 45.227 36.907s46.293 12.8 80.64 12.8c35.84 0 63.787-4.053 83.627-12.16s35.627-20.693 46.933-37.547c11.307-16.853 17.067-35.84 17.067-56.96 0-22.4-6.613-43.733-19.627-64s-36.907-42.667-71.467-66.987c-20.48-14.080-34.133-24.107-41.173-29.653-6.827-5.76-15.147-13.013-24.32-22.187h158.933v-83.413z" />
<glyph unicode="&#xe919;" glyph-name="rabbit" d="M577.493 960c-17.707 0.213-31.36-8.533-31.36-26.24 0-21.973-5.333-114.773 2.56-144.853s39.040-74.027 62.507-103.893c18.133-23.253 7.893-79.147 7.893-106.667 0-27.307-5.333-49.28-15.573-49.28s-26.027-10.88-36.48-21.76c-10.453-10.88-20.907-24.533-33.92-13.653s-36.48 21.76-78.080 30.080c-41.6 8.107-112 0-156.16-16.427-44.373-16.427-138.027-106.667-164.053-147.627s-28.587-166.613-26.027-185.813c2.56-19.2-5.333-32.853-18.347-16.427s-23.467 8.107-23.467 8.107-13.013-27.307-13.013-40.96c0-13.653 5.12-27.307 5.12-27.307s-20.907-16.427-20.907-27.307c0-10.88 20.907-30.080 33.92-46.507s57.387-49.28 75.52-46.507c18.133 2.773 52.053 0 65.067-8.107s44.16-19.2 83.413-21.76c39.040-2.773 148.48-10.88 177.067-10.88s36.48 5.547 49.493 19.2c13.013 13.653-10.453 30.080-18.347 49.28s26.027 13.653 36.48 16.427c10.453 2.773 39.040 21.76 57.387 21.76 18.133 0 15.573-19.2 39.040-30.080s57.173-46.507 83.413-51.84c26.027-5.547 85.973 0 106.667 8.107 20.907 8.107 18.133 27.307 0 40.96s-62.507 38.4-70.187 52.053c-7.893 13.653-10.453 30.080 2.56 43.733s26.027 8.107 46.72 19.2c20.907 10.88 28.587 43.733 28.587 62.933s2.56 39.893 10.453 51.84c6.613 10.027 9.173 42.027 9.6 64 0.427 23.253-9.6 29.013-17.493 42.667s7.893 32.853 18.133 32.853c10.453 0 57.387 8.32 75.52 16.427s36.48 43.733 49.493 60.16c13.013 16.427 2.56 51.84-15.573 62.933-18.133 10.88-18.347 40.96-33.92 60.16s-33.92 60.16-49.493 73.813c-15.573 13.653-52.053 24.533-65.067 24.533s-20.907 0-20.907 10.88c0 10.88-2.56 24.533-2.56 49.067s-29.44 130.133-67.627 194.133c-7.893 13.44-20.907 10.24-36.48 5.547-10.24-3.2-15.573-8.32-15.573-43.733 0-35.627-20.907 0-31.147 19.2-10.453 19.2-28.8 40.96-52.053 46.507-4.48 0.427-8.747 1.067-12.8 1.067v0z" />
<glyph unicode="&#xe91a;" glyph-name="cheetah" d="M1015.253 618.667c-19.627 16.213-6.827 40.107-39.253 46.72-23.467 4.907-27.947 2.773-28.587 1.067-0.213 5.333-2.987 28.8-26.453 13.013 0 0-12.8 3.413-10.88-12.8 0 0-26.453-8.107-47.36-23.68s-102.4-50.133-218.24-20.907c-116.053 29.227-216.96 68.48-302.933 8.747 0 0-88.107-43.307-128.853-134.827s-92.8-119.253-166.187-117.973-49.493-73.173 0-44.8 112-3.413 172.16 90.88c60.373 94.293 56.32 123.307 94.293 144.427 0 0 5.333-36.48 71.893-73.813 0 0-33.92-20.907-27.093-32.427s26.453-39.253 26.453-39.253-16.853-11.52-9.6-21.76c7.467-10.24 57.6-60.373 62.293-69.12s26.453-50.133 40.747-42.027c0 0 14.293-17.707 23.68-10.88 0 0 25.173 3.413 4.693 29.227s-25.173 29.867-25.173 29.867 19.627 23.68-32.427 75.307c0 0 85.547 55.040 76.587 75.307-8.747 20.48 80.64-92.8 123.947-61.653 0 0-36.48-59.733-40.747-83.413s-27.947-58.88-64.213-60.587c0 0-35.2 0.64-26.453-63.787 0 0 11.52-16.213 17.707-4.053 5.973 12.16 13.653 29.867 30.507 37.333s56.96 18.987 75.947 61.653c18.987 42.667 64.427 77.227 64.427 77.227s39.253-76.587 39.253-83.413c0-6.827-32.427-28.587-35.2-43.307 0 0-32.427-25.173-22.4-33.28 0 0 4.053-20.48 22.4-5.973 18.347 14.293 34.56 27.093 45.44 33.28 10.88 5.973 12.16 14.933 25.173 29.227 12.8 14.293 4.693 29.227-5.333 49.493s-14.933 69.12-14.933 69.12 63.787 15.147 74.667 41.387c10.453 26.453 45.867 72.32 66.773 89.387 20.907 16.853 62.933 21.76 71.253 30.507 0 0 23.040-16.213 32.427 5.973l-4.053 4.693c0 0 13.653 4.053 13.653 13.653 0-0.213 19.627 10.027 0 26.24z" />
</font>
</defs>
</svg>
